# xmcd
#
# Track frame offsets:
#	150
#	26320
#	47514
#	69879
#	98904
#	117556
#	139055
#	157651
#	180611
#	205751
#	228793
#	250075
#
# Disc length: 3579 seconds
#
# Revision: 1
# Processed by: cddbd v1.5.1PL0 Copyright (c) Steve Scherf et al.
# Submitted via: audiograbber 1.81.02
#
DISCID=8d0df90c
DTITLE=Matt Redman - Blessed Be Your Name - The Worship Songs of Matt Redman Vo
DTITLE=l. 1 (www.gerth.de)
DYEAR=2005
DGENRE=Chorus
TTITLE0=Blessed Be Your Name
TTITLE1=Holy Moment
TTITLE2=Once Again
TTITLE3=Heart Of Worship
TTITLE4=Let My Words Be Few
TTITLE5=Lord, Let Your Glory Fall
TTITLE6=Undignified
TTITLE7=Better Is One Day
TTITLE8=Facedown
TTITLE9=I Will Offer
TTITLE10=Let Everything That Has Breath
TTITLE11=The Father's Song
EXTD=
EXTT0=
EXTT1=
EXTT2=
EXTT3=
EXTT4=
EXTT5=
EXTT6=
EXTT7=
EXTT8=
EXTT9=
EXTT10=
EXTT11=
PLAYORDER=
